<svg xmlns="http://www.w3.org/2000/svg" width="870" height="1160" style="shape-rendering:geometricPrecision;text-rendering:geometricPrecision;image-rendering:optimizeQuality;fill-rule:evenodd;clip-rule:evenodd"><path fill="#414bf8" d="M.5-.5h143c.662 47.345-.005 94.345-2 141A14059.573 14059.573 0 0 1 .5-.5Z" style="opacity:1"/><path fill="#4849e1" d="M143.5-.5h1c.332 47.836-.001 95.503-1 143-1-.333-1.667-1-2-2 1.995-46.655 2.662-93.655 2-141Z" style="opacity:1"/><path fill="#140f95" d="M144.5-.5h1c-.662 47.678.005 95.012 2 142-1.051.722-1.718 1.722-2 3h-1l-1-2a5112.711 5112.711 0 0 0 1-143Z" style="opacity:1"/><path fill="#11006c" d="M145.5-.5h142a2.429 2.429 0 0 1-.5 2 27633.16 27633.16 0 0 0-139.5 140c-1.995-46.988-2.662-94.322-2-142Z" style="opacity:1"/><path fill="#424bf8" d="M287.5-.5h146v2a48439.38 48439.38 0 0 0-141 140 6.547 6.547 0 0 0-3 3c-.999 47.83-1.332 95.83-1 144a14452.576 14452.576 0 0 1-143-143v-1c.282-1.278.949-2.278 2-3A27633.16 27633.16 0 0 1 287 1.5a2.429 2.429 0 0 0 .5-2Z" style="opacity:1"/><path fill="#424bf7" d="M435.5.5v-1h144c.167 48.001 0 96.001-.5 144a14.698 14.698 0 0 0-3.5-3 13473.729 13473.729 0 0 0-138-138c-.333-1-1-1.667-2-2Z" style="opacity:1"/><path fill="#fefefe" d="M580.5-.5h289v144h-144a9380 9380 0 0 1 .5-137l1.5-1.5c-1.314-.985-2.314-2.152-3-3.5-1.258-.516-2.258.15-3 2l-140 139a5112.711 5112.711 0 0 1-1-143Z" style="opacity:1"/><path fill="#fdfeff" d="M-.5-.5h1a14059.573 14059.573 0 0 0 141 141c.333 1 1 1.667 2 2l1 2c.332 48.17-.001 96.17-1 144l-144-143V-.5Z" style="opacity:1"/><path fill="#414bf8" d="M721.5 3.5c1.166 93.166 1.332 186.499.5 280l-1 1c-1.147-2.319-2.981-3.652-5.5-4a12690.636 12690.636 0 0 1-134-134l-1-2 1-2 140-139Z" style="opacity:1"/><path fill="#11006c" d="M433.5 1.5v142c-47.345.662-94.345-.005-141-2a48439.38 48439.38 0 0 1 141-140Z" style="opacity:1"/><path fill="#110f94" d="M292.5 141.5c46.655 1.995 93.655 2.662 141 2v1c-47.503-.332-94.836.001-142 1h-1c0-.667-.333-1-1-1a6.547 6.547 0 0 1 3-3Z" style="opacity:1"/><path fill="#f1f3ff" d="M579.5-.5h1c-.332 47.836.001 95.503 1 143l-1 2h-146c-.332-48.17.001-96.17 1-144 1 .333 1.667 1 2 2-1.995 46.655-2.662 93.655-2 141h140v-3c1.294.79 2.461 1.79 3.5 3 .5-47.999.667-95.999.5-144Z" style="opacity:1"/><path fill="#fdfefe" d="M437.5 2.5a13473.729 13473.729 0 0 1 138 138v3h-140c-.662-47.345.005-94.345 2-141Z" style="opacity:1"/><path fill="#f4f4ff" d="M724.5 1.5c.686 1.348 1.686 2.515 3 3.5L726 6.5a9380 9380 0 0 0-.5 137h144v1h-145V1.5Z" style="opacity:1"/><path fill="#494877" d="M433.5-.5h2v1c-.999 47.83-1.332 95.83-1 144h145c-.342.838-1.008 1.172-2 1h-143c-.667 0-1-.333-1-1V-.5Z" style="opacity:1"/><path fill="#271b61" d="M724.5 145.5v-1h145v1a5.727 5.727 0 0 0-3 1h-141c0-.667-.333-1-1-1Z" style="opacity:1"/><path fill="#4648db" d="M433.5 144.5c0 .667.333 1 1 1v143h-1l-1-2a3270.03 3270.03 0 0 0 .5-140 2470.498 2470.498 0 0 0-140.5 0c-.667 0-1-.333-1-1a5041.406 5041.406 0 0 1 142-1Z" style="opacity:1"/><path fill="#4f54e5" d="M577.5 146.5c1.995 46.655 2.662 93.655 2 141v2h-145v-1h144c.333-46.671 0-93.338-1-140a177.521 177.521 0 0 1-17 15c5.333-6 11-11.667 17-17Z" style="opacity:1"/><path fill="#11016c" d="M725.5 146.5h141l-140 141c-.999-46.83-1.332-93.83-1-141Z" style="opacity:1"/><path fill="#414bf7" d="M435.5 288.5c41.333-42 83-83.667 125-125a177.521 177.521 0 0 0 17-15c1 46.662 1.333 93.329 1 140h-143Z" style="opacity:1"/><path fill="#fdfefe" d="M294.5 149.5c46 45.333 91.667 91 137 137-46.655 1.995-93.655 2.662-141 2v-139h4Z" style="opacity:1"/><path fill="#11006c" d="M434.5 145.5h143v1c-6 5.333-11.667 11-17 17-42 41.333-83.667 83-125 125h-1v-143Z" style="opacity:1"/><path fill="#18118d" d="M579.5 144.5h1l1 2-2 141c.662-47.345-.005-94.345-2-141v-1c.992.172 1.658-.162 2-1Z" style="opacity:1"/><path fill="#6169e4" d="M289.5 144.5c.667 0 1 .333 1 1-.999 47.83-1.332 95.83-1 144-.667 0-1-.333-1-1-.332-48.17.001-96.17 1-144Z" style="opacity:1"/><path fill="#4c50e1" d="M724.5 1.5v287h-1a45.408 45.408 0 0 1-8-8c2.519.348 4.353 1.681 5.5 4l1-1c.832-93.501.666-186.834-.5-280 .742-1.85 1.742-2.516 3-2Z" style="opacity:1"/><path fill="#4a4678" d="M144.5 144.5h1v145c-.992.172-1.658-.162-2-1 .999-47.83 1.332-95.83 1-144Z" style="opacity:1"/><path fill="#11006c" d="M145.5 145.5a14452.576 14452.576 0 0 0 143 143c0 .667.333 1 1 1v144h-2c.073-1.527-.594-2.527-2-3l-140-141v-144Z" style="opacity:1"/><path fill="#414bf8" d="M432.5 286.5h-1c-45.333-46-91-91.667-137-137l-2-3a2470.498 2470.498 0 0 1 140.5 0 3270.03 3270.03 0 0 1-.5 140Z" style="opacity:1"/><path fill="#141095" d="M724.5 145.5c.667 0 1 .333 1 1-.332 47.17.001 94.17 1 141v1h-2v-143Z" style="opacity:1"/><path fill="#11006c" d="M581.5 146.5a12690.636 12690.636 0 0 0 134 134 45.408 45.408 0 0 0 8 8h-144v-1l2-141Z" style="opacity:1"/><path fill="#414bf8" d="m-.5 145.5 144 143c.342.838 1.008 1.172 2 1l140 141c-23.157 1.333-46.657 2-70.5 2a2704.12 2704.12 0 0 1-72.5-1l-97-96a229.405 229.405 0 0 0-18-18c-9-9.667-18.333-19-28-28v-144Z" style="opacity:1"/><path fill="#424bf8" d="M869.5 145.5v143h-143v-1l140-141a5.727 5.727 0 0 1 3-1Z" style="opacity:1"/><path fill="#f5f4ff" d="M290.5 145.5h1c0 .667.333 1 1 1l2 3h-4v139c47.345.662 94.345-.005 141-2h1l1 2c-47.83.999-95.83 1.332-144 1-.332-48.17.001-96.17 1-144Z" style="opacity:1"/><path fill="#585dc5" d="M579.5 289.5v-1h290v1c-48.17-.332-96.17.001-144 1h-2c-47.83-.999-95.83-1.332-144-1Z" style="opacity:1"/><path fill="#f0f1ff" d="M869.5 289.5v1c-47.836-.332-95.503.001-143 1-.667 0-1-.333-1-1 47.83-.999 95.83-1.332 144-1Z" style="opacity:1"/><path fill="#fdfdfe" d="M434.5 289.5h145c48.17-.332 96.17.001 144 1l-141 142-2 1c-.662-47.902-1.329-95.236-2-142a14072.239 14072.239 0 0 0-141 141l-2 1h-1v-144Z" style="opacity:1"/><path fill="#fefdfd" d="M869.5 290.5v143h-2a6.547 6.547 0 0 0-3-3l-138-139a5112.717 5112.717 0 0 1 143-1Z" style="opacity:1"/><path fill="#fdfdfe" d="M-.5 289.5c9.667 9 19 18.333 28 28-.16 1.699.006 3.366.5 5 5.391 3.382 10.224 7.548 14.5 12.5a4.934 4.934 0 0 0 3 .5l97 96 1 2c-47.83.999-95.83 1.332-144 1v-145Z" style="opacity:1"/><path fill="#12006c" d="M292.5 291.5h140v140c-.667 0-1-.333-1-1a6634.523 6634.523 0 0 0-118-119.5 2.428 2.428 0 0 0-2-.5l-14-13-5-6Z" style="opacity:1"/><path fill="#090059" d="M291.5 290.5h142v143h-1v-142h-140c-.667 0-1-.333-1-1Z" style="opacity:1"/><path fill="#414bf7" d="M723.5 290.5h2c0 .667.333 1 1 1l138 139a4888.258 4888.258 0 0 1-140 3v1c-47.678.662-95.012-.005-142-2l141-142Z" style="opacity:1"/><path fill="#424bf7" d="m297.5 297.5 14 13 116 117c.124 2.082 1.124 3.582 3 4.5-46.665.5-93.332.667-140 .5-.333-46.005 0-92.005 1-138a12.805 12.805 0 0 0 6 3Z" style="opacity:1"/><path fill="#4c4781" d="M433.5 288.5h1v145h-1v-143h-144v-1c48.17.332 96.17-.001 144-1Z" style="opacity:1"/><path fill="#414bf8" d="M578.5 291.5v144a25.658 25.658 0 0 0-6 6c-5.667 5-11 10.333-16 16-5.667 5-11 10.333-16 16-5.667 5-11 10.333-16 16-5.667 5-11 10.333-16 16-5.667 5-11 10.333-16 16-5.667 5-11 10.333-16 16l-39 38a2570.754 2570.754 0 0 1 0-143 14072.239 14072.239 0 0 1 141-141Z" style="opacity:1"/><path fill="#0c0178" d="M311.5 310.5a2.428 2.428 0 0 1 2 .5 6634.523 6634.523 0 0 1 118 119.5l-4-3-116-117Z" style="opacity:1"/><path fill="#e5e4ff" d="M27.5 317.5a229.405 229.405 0 0 1 18 18 4.934 4.934 0 0 1-3-.5c-4.276-4.952-9.109-9.118-14.5-12.5a12.935 12.935 0 0 1-.5-5Z" style="opacity:1"/><path fill="#3a48d9" d="M285.5 430.5c1.406.473 2.073 1.473 2 3h-144l-1-2c24.125.657 48.292.99 72.5 1 23.843 0 47.343-.667 70.5-2Z" style="opacity:1"/><path fill="#3e48df" d="M289.5 290.5h2c0 .667.333 1 1 1l5 6a12.805 12.805 0 0 1-6-3c-1 45.995-1.333 91.995-1 138 46.668.167 93.335 0 140-.5-1.876-.918-2.876-2.418-3-4.5l4 3c0 .667.333 1 1 1v2h-143v-143Z" style="opacity:1"/><path fill="#3d46d9" d="M864.5 430.5a6.547 6.547 0 0 1 3 3h-143a4888.258 4888.258 0 0 0 140-3Z" style="opacity:1"/><path fill="#666bd1" d="M724.5 433.5h144l-143 2c-.667 0-1-.333-1-1v-1Z" style="opacity:1"/><path fill="#eff1fe" d="M868.5 433.5h1v2c-47.836-.332-95.503.001-143 1h-1v-1l143-2Z" style="opacity:1"/><path fill="#3c45d9" d="M1.5 435.5h144l1 2a2638.65 2638.65 0 0 0-144 0c-.838-.342-1.172-1.008-1-2Z" style="opacity:1"/><path fill="#fdfdff" d="M284.5 574.5c-46-45.333-91.667-91-137-137 46.655-1.995 93.655-2.662 141-2 .333 46.671 0 93.338-1 140a5.576 5.576 0 0 0-3-1Z" style="opacity:1"/><path fill="#fdfdfe" d="M869.5 435.5v144l-143-142v-1a5112.717 5112.717 0 0 1 143-1Z" style="opacity:1"/><path fill="#4147dd" d="M437.5 432.5a2570.754 2570.754 0 0 0 0 143l-1 2h-1v-144l2-1Z" style="opacity:1"/><path fill="#636ace" d="M143.5 433.5h292v144c-1-46.928-1.333-94.595-1-143-96.501-.333-192.835.001-289 1H-.5v-1c48.17.332 96.17-.001 144-1Z" style="opacity:1"/><path fill="#120d93" d="M582.5 432.5c46.988 1.995 94.322 2.662 142 2 0 .667.333 1 1 1v1a5041.406 5041.406 0 0 0-1 142h-2v-1a5041.406 5041.406 0 0 0 1-142c-47.503-.332-94.836.001-142 1h-1v-3l2-1Z" style="opacity:1"/><path fill="#424bf7" d="M146.5 437.5h1c45.333 46 91 91.667 137 137 1 1.667 2.333 3 4 4v145c-47.667-47-95-94.333-142-142 0-.667-.333-1-1-1-.333-1-1-1.667-2-2 0-.667-.333-1-1-1-47-46.333-93.667-93-140-140 48.18-1.31 96.18-1.31 144 0Z" style="opacity:1"/><path fill="#6269e0" d="M580.5 433.5v145h144c.667 0 1 .333 1 1h-1c-48.17-.332-96.17.001-144 1h-144a5041.406 5041.406 0 0 0-1 142v1h-1v-144h145c.332-48.17-.001-96.17-1-144v-144c.671 46.764 1.338 94.098 2 142Z" style="opacity:1"/><path fill="#3c45e7" d="M580.5 436.5h1a637.209 637.209 0 0 1 30 30c-1.544-.203-2.878-.87-4-2l-17-17c-3.112-1.483-5.945-1.15-8.5 1a4094.203 4094.203 0 0 0 0 128c23.095.664 46.262.998 69.5 1 23.343 0 46.343-.667 69-2 1 .333 1.667 1 2 2v1h-142v-142Z" style="opacity:1"/><path fill="#11006c" d="M581.5 436.5a5041.406 5041.406 0 0 1 142-1c.332 47.503-.001 94.836-1 142-.333-1-1-1.667-2-2a8397.11 8397.11 0 0 0-109-109 637.209 637.209 0 0 0-30-30Z" style="opacity:1"/><path fill="#4648df" d="M725.5 436.5h1v1a2580.48 2580.48 0 0 0 0 143h-1v-1c0-.667-.333-1-1-1-.332-47.503.001-94.836 1-142Z" style="opacity:1"/><path fill="#424cf7" d="M611.5 466.5a8397.11 8397.11 0 0 1 109 109c-22.657 1.333-45.657 2-69 2a2425.487 2425.487 0 0 1-69.5-1 4094.203 4094.203 0 0 1 0-128c2.555-2.15 5.388-2.483 8.5-1l17 17c1.122 1.13 2.456 1.797 4 2Z" style="opacity:1"/><path fill="#11006c" d="M-.5 435.5h2c-.172.992.162 1.658 1 2 46.333 47 93 93.667 140 140a5112.711 5112.711 0 0 1-143 1v-143Z" style="opacity:1"/><path fill="#414bf8" d="m726.5 437.5 143 142v144h-2c0-.667-.333-1-1-1-46.333-47-93-93.667-140-140v-2a2580.48 2580.48 0 0 1 0-143Z" style="opacity:1"/><path fill="#130c88" d="M142.5 577.5c.667 0 1 .333 1 1-47.83.999-95.83 1.332-144 1v-1c47.836.332 95.503-.001 143-1Z" style="opacity:1"/><path fill="#6069e2" d="M291.5 436.5a5041.406 5041.406 0 0 0-1 142h142c-46.928 1-94.595 1.333-143 1v143h-1v-144c.667-47.502 1.333-95.168 2-143 .607.124.94.457 1 1Z" style="opacity:1"/><path fill="#f0f3ff" d="M435.5 577.5h1c47.164.999 94.497 1.332 142 1 .167-47.001 0-94.001-.5-141-1.451 1.964-3.284 3.297-5.5 4a25.658 25.658 0 0 1 6-6c.999 47.83 1.332 95.83 1 144h-145v145c-.999-47.83-1.332-95.83-1-144-47.572-.33-95.072.003-142.5 1-.5 95.666-.667 191.333-.5 287 47.836-.332 95.503.001 143 1h-143c-.999-48.83-1.332-97.83-1-147v-143c48.405.333 96.072 0 143-1l-2-3c.996-.086 1.829.248 2.5 1 .667-46.667.667-93.333 0-140a2495.925 2495.925 0 0 0-70.5-1c-23.676 0-47.01.667-70 2-.667 0-1-.333-1-1-.06-.543-.393-.876-1-1-.667 47.832-1.333 95.498-2 143-1.667-1-3-2.333-4-4a5.576 5.576 0 0 1 3 1c1-46.662 1.333-93.329 1-140-47.345-.662-94.345.005-141 2h-1l-1-2c96.165-.999 192.499-1.333 289-1-.333 48.405 0 96.072 1 143Z" style="opacity:1"/><path fill="#3c48ea" d="M291.5 436.5c0 .667.333 1 1 1l4 5c-1.872-1.295-3.538-1.128-5 .5.4 43.748 1.067 87.581 2 131.5a28.043 28.043 0 0 0 5 1.5l-3 1c44 .667 88 .667 132 0 .752-.671 1.086-1.504 1-2.5l2 1 2 3h-142c-.332-47.503.001-94.836 1-142Z" style="opacity:1"/><path fill="#dee0ff" d="M492.5 521.5a60.87 60.87 0 0 1-16 16c5-5.667 10.333-11 16-16ZM524.5 489.5a60.87 60.87 0 0 1-16 16c5-5.667 10.333-11 16-16Z" style="opacity:1"/><path fill="#dfe0ff" d="M556.5 457.5a60.87 60.87 0 0 1-16 16c5-5.667 10.333-11 16-16Z" style="opacity:1"/><path fill="#414cf7" d="M296.5 442.5a12333.138 12333.138 0 0 1 132 132c.086.996-.248 1.829-1 2.5-44 .667-88 .667-132 0l3-1a28.043 28.043 0 0 1-5-1.5c-.933-43.919-1.6-87.752-2-131.5 1.462-1.628 3.128-1.795 5-.5Z" style="opacity:1"/><path fill="#fefefe" d="m436.5 577.5 1-2 39-38a60.87 60.87 0 0 0 16-16c5-5.667 10.333-11 16-16a60.87 60.87 0 0 0 16-16c5-5.667 10.333-11 16-16a60.87 60.87 0 0 0 16-16c5-5.667 10.333-11 16-16 2.216-.703 4.049-2.036 5.5-4 .5 46.999.667 93.999.5 141-47.503.332-94.836-.001-142-1Z" style="opacity:1"/><path fill="#fdfdfe" d="m430.5 575.5-2-1a12333.138 12333.138 0 0 0-132-132l-4-5c22.99-1.333 46.324-2 70-2 23.571.002 47.071.336 70.5 1 .667 46.667.667 93.333 0 140-.671-.752-1.504-1.086-2.5-1Z" style="opacity:1"/><path fill="#414cf8" d="M131.5 711.5c.219-1.175-.114-2.175-1-3l-36-36a5.575 5.575 0 0 0-3-1c.219-1.175-.114-2.175-1-3l-38-38a5.575 5.575 0 0 0-3-1c.219-1.175-.114-2.175-1-3l-38-38a5.575 5.575 0 0 0-3-1c-1.043-2.556-2.71-4.723-5-6.5 46.999-.5 93.999-.667 141-.5.333 46.671 0 93.338-1 140-3.124-3.804-6.791-6.804-11-9Z" style="opacity:1"/><path fill="#fefefe" d="M434.5 724.5h3c46.165.833 92.498 1.333 139 1.5-1.473.71-2.14 1.876-2 3.5-46 46.667-92.333 93-139 139-.667 0-1 .333-1 1h-1a5112.717 5112.717 0 0 0-143-1c-.167-95.667 0-191.334.5-287 47.428-.997 94.928-1.33 142.5-1-.332 48.17.001 96.17 1 144Z" style="opacity:1"/><path fill="#fdfdfe" d="M724.5 579.5c.332 48.17-.001 96.17-1 144h-1c-.333-1-1-1.667-2-2-46-46.667-92.333-93-139-139 0-.667-.333-1-1-1v-1c47.83-.999 95.83-1.332 144-1Z" style="opacity:1"/><path fill="#4649e0" d="M143.5 578.5c1 .333 1.667 1 2 2-1.333 48-1.333 96 0 144v1c-47.836-.332-95.503.001-143 1-.667 0-1-.333-1-1 47.57-.662 94.57-1.329 141-2l-11-12c4.209 2.196 7.876 5.196 11 9 1-46.662 1.333-93.329 1-140-47.001-.167-94.001 0-141 .5 2.29 1.777 3.957 3.944 5 6.5l-8-7v-1c48.17.332 96.17-.001 144-1Z" style="opacity:1"/><path fill="#414cf7" d="M436.5 580.5h141c-1.692 1.705-3.025 3.705-4 6a63761.101 63761.101 0 0 0-136 135c-.999-46.83-1.332-93.83-1-141Z" style="opacity:1"/><path fill="#131196" d="M145.5 580.5c.667 0 1 .333 1 1a5112.717 5112.717 0 0 0-1 143c-1.333-48-1.333-96 0-144Z" style="opacity:1"/><path fill="#11006c" d="M146.5 581.5c47 47.667 94.333 95 142 142v144l-143-142v-1c-.332-47.836.001-95.503 1-143Z" style="opacity:1"/><path fill="#3d48dd" d="M436.5 580.5c-.332 47.17.001 94.17 1 141-.342.838-1.008 1.172-2 1-.332-47.503.001-94.836 1-142Z" style="opacity:1"/><path fill="#150b88" d="M577.5 580.5h3v1a5041.406 5041.406 0 0 0-1 142h-1c.333-46.671 0-93.338-1-140-.783 1.788-2.116 2.788-4 3 .975-2.295 2.308-4.295 4-6Z" style="opacity:1"/><path fill="#3e44dc" d="M7.5 587.5a5.575 5.575 0 0 1 3 1l38 38c.886.825 1.219 1.825 1 3a1248.2 1248.2 0 0 1-42-42Z" style="opacity:1"/><path fill="#11006c" d="m-.5 580.5 8 7a1248.2 1248.2 0 0 0 42 42 1248.2 1248.2 0 0 0 42 42c13 13.667 26.333 27 40 40l11 12a5041.4 5041.4 0 0 0-142 1h-1v-144Z" style="opacity:1"/><path fill="#12006c" d="M726.5 582.5c47 46.333 93.667 93 140 140h-140v-140ZM578.5 723.5h-143v-1c.992.172 1.658-.162 2-1a63761.101 63761.101 0 0 1 136-135c1.884-.212 3.217-1.212 4-3 1 46.662 1.333 93.329 1 140Z" style="opacity:1"/><path fill="#424bf7" d="M581.5 582.5c46.667 46 93 92.333 139 139-46.321 1.995-92.988 2.662-140 2-.332-47.17.001-94.17 1-141Z" style="opacity:1"/><path fill="#3e44dc" d="M49.5 629.5a5.575 5.575 0 0 1 3 1l38 38c.886.825 1.219 1.825 1 3a1248.2 1248.2 0 0 1-42-42ZM91.5 671.5a5.575 5.575 0 0 1 3 1l36 36c.886.825 1.219 1.825 1 3-13.667-13-27-26.333-40-40Z" style="opacity:1"/><path fill="#0b0057" d="M725.5 580.5h1v142h140c.667 0 1 .333 1 1h-142v-143Z" style="opacity:1"/><path fill="#110e90" d="M142.5 723.5c-46.43.671-93.43 1.338-141 2-.667 0-1-.333-1-1a5041.4 5041.4 0 0 1 142-1Z" style="opacity:1"/><path fill="#4d487b" d="M434.5 724.5v-1h145v2h-1c-46.83-.999-93.83-1.332-141-1h-3Z" style="opacity:1"/><path fill="#4748df" d="M580.5 581.5c.667 0 1 .333 1 1-.999 46.83-1.332 93.83-1 141 47.012.662 93.679-.005 140-2 1 .333 1.667 1 2 2a5112.717 5112.717 0 0 1-143 1v-1c-.332-47.503.001-94.836 1-142Z" style="opacity:1"/><path fill="#4e4778" d="M724.5 579.5h1v144h144v1h-145v145h-1v-146c.999-47.83 1.332-95.83 1-144Z" style="opacity:1"/><path fill="#f2f1ff" d="M437.5 724.5c47.17-.332 94.17.001 141 1-1 1.667-2.333 3-4 4-.14-1.624.527-2.79 2-3.5a9619.428 9619.428 0 0 1-139-1.5Z" style="opacity:1"/><path fill="#120c91" d="M722.5 723.5h1v2h-144v-1c47.836.332 95.503-.001 143-1Z" style="opacity:1"/><path fill="#fefefe" d="M869.5 724.5v145h-145v-145h145Z" style="opacity:1"/><path fill="#fdfdff" d="M-.5 724.5h1c0 .667.333 1 1 1 0 .667.333 1 1 1l141 142c-47.83.999-95.83 1.332-144 1v-145Z" style="opacity:1"/><path fill="#414bf8" d="M145.5 725.5a5.576 5.576 0 0 0 1 3l139 139c.929 1.189 1.262 2.522 1 4-45.333 46-91 91.667-137 137-.996.09-1.829-.25-2.5-1a9481.323 9481.323 0 0 0-1.5-138l-2-1-141-142a5112.711 5112.711 0 0 1 143-1Z" style="opacity:1"/><path fill="#11006c" d="M581.5 725.5h142v142l-4-3-138-139Z" style="opacity:1"/><path fill="#4045dc" d="m145.5 725.5 143 142v3l-2 1c.262-1.478-.071-2.811-1-4l-139-139a5.576 5.576 0 0 1-1-3Z" style="opacity:1"/><path fill="#414bf8" d="M578.5 725.5h3l138 139c.011 1.517.677 2.684 2 3.5-47.666.5-95.332.667-143 .5.037 3.202 1.703 4.868 5 5l9 8c43.333 44 87 87.667 131 131v3c-9 8.33-17.667 17-26 26-6.667 6-13 12.33-19 19-32.667 32-65 64.33-97 97l-2-143c-43-43.667-86.333-87-130-130-4-4.667-8.333-9-13-13a5.727 5.727 0 0 1-1-3c46.667-46 93-92.333 139-139 1.667-1 3-2.333 4-4Z" style="opacity:1"/><path fill="#4249e1" d="m719.5 864.5 4 3v2c-47.668-.167-95.334 0-143 .5a14.698 14.698 0 0 1 3 3.5c-3.297-.132-4.963-1.798-5-5 47.668.167 95.334 0 143-.5-1.323-.816-1.989-1.983-2-3.5Z" style="opacity:1"/><path fill="#626ad8" d="m143.5 868.5 2 1v144c-.833-47.498-1.333-95.165-1.5-143-.383.556-.883.889-1.5 1a5112.711 5112.711 0 0 0-143-1v-1c48.17.332 96.17-.001 144-1Z" style="opacity:1"/><path fill="#11006c" d="M723.5 1012.5c-44-43.333-87.667-87-131-131-2.393-3.902-5.393-7.402-9-10.5 46.665-.5 93.332-.667 140-.5v142Z" style="opacity:1"/><path fill="#414bf7" d="M-.5 870.5c47.836-.332 95.503.001 143 1-.667 0-1 .333-1 1-6 5.333-11.667 11-17 17-5.667 5-11 10.333-16 16-5.667 5-11 10.333-16 16-5.667 5-11 10.333-16 16-5.667 5-11 10.333-16 16-5.667 5-11 10.333-16 16-5.667 5-11 10.333-16 16-5.667 5-11 10.333-16 16l-13 12v-143Z" style="opacity:1"/><path fill="#4c4786" d="M288.5 722.5h1c-.332 49.17.001 98.17 1 147v144h-1c.332-47.836-.001-95.503-1-143v-148Z" style="opacity:1"/><path fill="#110c8c" d="M723.5 869.5h1c-.332 48.17.001 96.17 1 144v1h-2v-144c-46.668-.167-93.335 0-140 .5 3.607 3.098 6.607 6.598 9 10.5l-9-8a14.698 14.698 0 0 0-3-3.5c47.666-.5 95.332-.667 143-.5Z" style="opacity:1"/><path fill="#5154dd" d="M724.5 869.5h145v1h-144c-.333 46.671 0 93.338 1 140 .607-.12.94-.46 1-1 .342-.84 1.008-1.17 2-1-.58 2.25-1.913 3.92-4 5-.999-47.83-1.332-95.83-1-144Z" style="opacity:1"/><path fill="#414bf7" d="M864.5 874.5a6401.274 6401.274 0 0 1-135 134c-.992-.17-1.658.16-2 1-.999-45.83-1.332-91.83-1-138h138v3Z" style="opacity:1"/><path fill="#3e45db" d="M145.5 869.5a9481.323 9481.323 0 0 1 1.5 138c.671.75 1.504 1.09 2.5 1-1 1.67-2.333 3-4 4v-143Z" style="opacity:1"/><path fill="#fdfdfe" d="M288.5 870.5a5112.717 5112.717 0 0 1 1 143v1c46.498.83 93.165 1.33 140 1.5.752.67 1.086 1.5 1 2.5l-140 141h-2a14135.912 14135.912 0 0 0-141-141c-.333-.67-.667-1.33-1-2 0-.67-.333-1-1-1v-3c1.667-1 3-2.33 4-4 46-45.333 91.667-91 137-137l2-1Z" style="opacity:1"/><path fill="#fefefe" d="M436.5 871.5a4.934 4.934 0 0 0 .5 3l9.5 9.5a4.934 4.934 0 0 0 3 .5c43.667 43 87 86.333 130 130-.333 48 0 96 1 144 .607-.12.94-.46 1-1 32-32.67 64.333-65 97-97 3.303-2.29 6.637-4.62 10-7 2.678-3.18 5.512-6.18 8.5-9 .483-.95.649-1.95.5-3 8.333-9 17-17.67 26-26 .999 47.83 1.332 95.83 1 144h-146c-1-1.33-2-2.67-3-4a4.939 4.939 0 0 0-.5-3c-45.167-45.17-90.333-90.33-135.5-135.5a10.164 10.164 0 0 0-4-1.5c-.332-48.17.001-96.17 1-144Z" style="opacity:1"/><path fill="#dfe4ff" d="M436.5 871.5c4.667 4 9 8.333 13 13a4.934 4.934 0 0 1-3-.5l-9.5-9.5a4.934 4.934 0 0 1-.5-3Z" style="opacity:1"/><path fill="#4249ea" d="M867.5 870.5c-.238 1.904-1.238 3.238-3 4v-3h-138c-.332 46.17.001 92.17 1 138-.06.54-.393.88-1 1-1-46.662-1.333-93.329-1-140h142Z" style="opacity:1"/><path fill="#fefefe" d="M141.5 872.5c.722.418 1.222 1.084 1.5 2l.5 141c0 47.34-.667 94.34-2 141l-142-141v-2l13-12a60.87 60.87 0 0 0 16-16 60.87 60.87 0 0 0 16-16c5-5.667 10.333-11 16-16a60.87 60.87 0 0 0 16-16c5-5.667 10.333-11 16-16a60.866 60.866 0 0 0 16-16 60.87 60.87 0 0 0 16-16 68.648 68.648 0 0 0 17-17Z" style="opacity:1"/><path fill="#4c4878" d="M290.5 870.5v-1h144v145h-145v-1h144v-143h-143Z" style="opacity:1"/><path fill="#11006c" d="M867.5 870.5h2v144c-14.667 14-29 28.33-43 43-33.667 33.33-67.333 66.67-101 100v-144c2.087-1.08 3.42-2.75 4-5a6401.274 6401.274 0 0 0 135-134c1.762-.762 2.762-2.096 3-4Z" style="opacity:1"/><path fill="#e0e2ff" d="M141.5 872.5a68.648 68.648 0 0 1-17 17c5.333-6 11-11.667 17-17Z" style="opacity:1"/><path fill="#e0e3ff" d="M124.5 889.5a60.87 60.87 0 0 1-16 16c5-5.667 10.333-11 16-16ZM108.5 905.5a60.866 60.866 0 0 1-16 16c5-5.667 10.333-11 16-16Z" style="opacity:1"/><path fill="#dfe2ff" d="M76.5 937.5a60.87 60.87 0 0 1-16 16c5-5.667 10.333-11 16-16ZM44.5 969.5a60.87 60.87 0 0 1-16 16c5-5.667 10.333-11 16-16Z" style="opacity:1"/><path fill="#e0e3ff" d="M28.5 985.5a60.87 60.87 0 0 1-16 16c5-5.667 10.333-11 16-16Z" style="opacity:1"/><path fill="#090053" d="M290.5 870.5h143v143h-143v-143Z" style="opacity:1"/><path fill="#1b0d72" d="M292.5 871.5v140h139v-139c-45.503.332-90.836-.001-136-1h137v141h-141c-.332-47.17.001-94.17 1-141Z" style="opacity:1"/><path fill="#11006b" d="M292.5 871.5h3c45.164.999 90.497 1.332 136 1v139h-139v-140Z" style="opacity:1"/><path fill="#f0f2fe" d="M145.5 1013.5v2l-2 143c-1-.33-1.667-1-2-2 1.333-46.66 2-93.66 2-141l-.5-141c-.278-.916-.778-1.582-1.5-2 0-.667.333-1 1-1 .617-.111 1.117-.444 1.5-1 .167 47.835.667 95.502 1.5 143Z" style="opacity:1"/><path fill="#f6f3fe" d="M435.5 868.5a5.727 5.727 0 0 0 1 3c-.999 47.83-1.332 95.83-1 144a11.843 11.843 0 0 0-5 3c.086-1-.248-1.83-1-2.5-46.835-.17-93.502-.67-140-1.5h145v-145c0-.667.333-1 1-1Z" style="opacity:1"/><path fill="#6569cf" d="M145.5 1015.5c.667 0 1 .33 1 1a5112.69 5112.69 0 0 0-1 143h-2v-1l2-143Z" style="opacity:1"/><path fill="#414bf8" d="M869.5 1016.5v143h-144v-2c33.667-33.33 67.333-66.67 101-100 3.557 0 5.724-1.66 6.5-5a1867.89 1867.89 0 0 1 36.5-36Z" style="opacity:1"/><path fill="#3c45d6" d="M146.5 1016.5c.333.67.667 1.33 1 2-.999 46.83-1.332 93.83-1 141h-1c-.332-47.84.001-95.5 1-143Z" style="opacity:1"/><path fill="#414bf7" d="M435.5 1015.5c46.333 47 93 93.67 140 140 1 1.33 2 2.67 3 4h-288l140-141a11.843 11.843 0 0 1 5-3Z" style="opacity:1"/><path fill="#dfe0ff" d="M435.5 1015.5c1.422.21 2.755.71 4 1.5 45.167 45.17 90.333 90.33 135.5 135.5.483.95.649 1.95.5 3-47-46.33-93.667-93-140-140Z" style="opacity:1"/><path fill="#4d4878" d="M723.5 1015.5v-1h2v145h-1c.332-48.17-.001-96.17-1-144Z" style="opacity:1"/><path fill="#5e69e0" d="m579.5 1014.5 2 143c-.06.54-.393.88-1 1-1-48-1.333-96-1-144Z" style="opacity:1"/><path fill="#414bf8" d="m-.5 1015.5 142 141c.333 1 1 1.67 2 2v1H-.5v-144Z" style="opacity:1"/><path fill="#e0e4ff" d="M697.5 1041.5a4.939 4.939 0 0 1-.5 3 108.187 108.187 0 0 0-8.5 9c-3.363 2.38-6.697 4.71-10 7 6-6.67 12.333-13 19-19Z" style="opacity:1"/><path fill="#4243d9" d="M869.5 1014.5v2a1867.89 1867.89 0 0 0-36.5 36c-.776 3.34-2.943 5-6.5 5 14-14.67 28.333-29 43-43Z" style="opacity:1"/><path fill="#414bf9" d="M147.5 1018.5c47.333 46.67 94.333 93.67 141 141h-142c-.332-47.17.001-94.17 1-141Z" style="opacity:1"/></svg>