<?xml version="1.0" standalone="no"?>
<!DOCTYPE svg PUBLIC "-//W3C//DTD SVG 20010904//EN"
 "http://www.w3.org/TR/2001/REC-SVG-20010904/DTD/svg10.dtd">
<svg version="1.0" xmlns="http://www.w3.org/2000/svg"
 width="870.000000pt" height="1160.000000pt" viewBox="0 0 870.000000 1160.000000"
 preserveAspectRatio="xMidYMid meet">

<g transform="translate(0.000000,1160.000000) scale(0.100000,-0.100000)"
fill="#000000" stroke="none">
<path d="M728 10877 l722 -722 0 -730 0 -730 -725 725 -725 725 0 -720 0 -720
728 -728 727 -727 1448 0 1447 0 0 725 0 725 -725 0 -725 0 0 727 0 728 728
-728 727 -727 2173 0 2172 0 0 725 0 725 -725 0 -725 0 0 722 0 723 -723 -723
-722 -722 -728 0 -727 0 0 725 0 725 -2172 0 -2173 0 723 -723z"/>
<path d="M5075 10880 c396 -396 721 -720 722 -720 2 0 3 324 3 720 l0 720
-722 0 -723 0 720 -720z"/>
<path d="M5073 7968 l-723 -723 0 -720 0 -720 725 725 725 725 -2 718 -3 717
-722 -722z"/>
<path d="M6522 7967 l-722 -722 2 -720 3 -720 723 -3 722 -2 0 -725 0 -725
725 0 725 0 0 722 0 723 -727 727 -728 728 725 0 725 0 -720 720 c-396 396
-722 720 -725 720 -3 0 -330 -325 -728 -723z"/>
<path d="M0 5802 l0 -1447 725 -725 725 -725 0 -725 0 -725 725 725 725 725 0
1445 0 1445 -728 728 -727 727 -723 0 -722 0 0 -1448z"/>
<path d="M2900 6527 c0 -565 3 -719 13 -722 6 -3 330 -4 720 -3 l707 3 -720
720 -720 720 0 -718z"/>
<path d="M4357 5793 c-4 -3 -7 -330 -7 -725 l0 -718 727 0 728 0 -725 -725
-725 -725 723 -723 722 -722 0 -725 0 -725 725 725 725 725 0 -728 0 -727 725
0 725 0 0 1450 0 1450 -725 0 -725 0 0 723 0 722 -728 728 -727 727 -716 0
c-394 0 -719 -3 -722 -7z"/>
<path d="M0 2178 l0 -723 720 720 c396 396 720 721 720 722 0 2 -324 3 -720 3
l-720 0 0 -722z"/>
<path d="M2900 2175 l0 -725 725 0 725 0 0 725 0 725 -725 0 -725 0 0 -725z"/>
<path d="M0 720 l0 -720 722 0 723 0 -720 720 c-396 396 -721 720 -722 720 -2
0 -3 -324 -3 -720z"/>
<path d="M1450 720 l0 -720 722 0 723 0 -720 720 c-396 396 -721 720 -722 720
-2 0 -3 -324 -3 -720z"/>
<path d="M3625 720 l-720 -720 1445 0 1445 0 -720 720 c-396 396 -722 720
-725 720 -3 0 -329 -324 -725 -720z"/>
</g>
</svg>
