<svg xmlns="http://www.w3.org/2000/svg" viewBox="0 0 530 530"><g id="Layer_2" data-name="Layer 2"><g id="Layer_1-2" data-name="Layer 1"><rect x="389" y="408" width="99" height="50" rx="14.93"/><rect x="389" y="480" width="141" height="50" rx="14.93"/><rect y="480" width="367" height="50" rx="14.93"/><path d="M352.07,408H322.23a4.23,4.23,0,0,1-4.23-4.23v-295a4,4,0,0,1,3.89-4c13.53-.47,28.17-3.75,43.79-9.82l.87-.37c8-3.54,15.13-6.92,21.43-9.91,28.09-13.29,39.71-18.79,63.89-12.51a47.83,47.83,0,0,1,35.82,41.05,5.21,5.21,0,0,0,5.07,4.78h32a5.28,5.28,0,0,0,5.05-5.77c-2.42-39.95-29.73-74-68.08-84-38-9.87-60.11.59-90.72,15.08-6.27,3-12.75,6-20.1,9.3-18.12,7-28.84,8.36-45.29,5.23a3,3,0,0,1-.4-.11h0a3.36,3.36,0,0,1-2.08-1.84c-7-15.67-13.44-33-16-46C286,4.12,281.66,0,276.62,0H253.38c-5,0-9.41,4.12-10.55,10-2.55,13-9,30.29-16,46a3.36,3.36,0,0,1-2.08,1.84l-.2.07c-11.57,3.61-27.3,1.82-45.49-5.19-7.35-3.27-13.83-6.34-20.1-9.3-30.61-14.49-52.73-25-90.72-15.08-38.35,10-65.66,44-68.08,84A5.28,5.28,0,0,0,5.22,118h32a5.21,5.21,0,0,0,5.07-4.78,47.83,47.83,0,0,1,35.82-41c24.18-6.28,35.8-.78,63.89,12.51,6.3,3,13.45,6.37,21.43,9.91l.87.37c15.64,6.08,30.28,9.35,43.82,9.82a4,4,0,0,1,3.86,4v295a4.23,4.23,0,0,1-4.23,4.23H56.93A14.92,14.92,0,0,0,42,422.93v20.14A14.92,14.92,0,0,0,56.93,458H352.07A14.92,14.92,0,0,0,367,443.07V422.93A14.92,14.92,0,0,0,352.07,408Zm-98-304.34a14.82,14.82,0,0,1,1.52-6.57l2.62-5.27a7.59,7.59,0,0,1,13.6,0l2.62,5.27a14.82,14.82,0,0,1,1.52,6.57V403.77A4.23,4.23,0,0,1,271.7,408H258.3a4.23,4.23,0,0,1-4.24-4.23Z"/></g></g></svg>